<svg width="36" height="32" viewBox="0 0 36 32" fill="none" xmlns="http://www.w3.org/2000/svg">
<path d="M25.1625 5.19375L30.8 10.8312C31.0375 11.0687 31.0375 11.4562 30.8 11.6937L17.15 25.3437L11.35 25.9875C10.575 26.075 9.91875 25.4187 10.0063 24.6437L10.65 18.8437L24.3 5.19375C24.5375 4.95625 24.925 4.95625 25.1625 5.19375ZM35.2875 3.7625L32.2375 0.7125C31.2875 -0.2375 29.7437 -0.2375 28.7875 0.7125L26.575 2.925C26.3375 3.1625 26.3375 3.55 26.575 3.7875L32.2125 9.425C32.45 9.6625 32.8375 9.6625 33.075 9.425L35.2875 7.2125C36.2375 6.25625 36.2375 4.7125 35.2875 3.7625ZM24 21.6312V27.9937H4V7.99375H18.3625C18.5625 7.99375 18.75 7.9125 18.8937 7.775L21.3937 5.275C21.8687 4.8 21.5312 3.99375 20.8625 3.99375H3C1.34375 3.99375 0 5.3375 0 6.99375V28.9937C0 30.65 1.34375 31.9937 3 31.9937H25C26.6562 31.9937 28 30.65 28 28.9937V19.1312C28 18.4625 27.1938 18.1312 26.7188 18.6L24.2188 21.1C24.0812 21.2437 24 21.4312 24 21.6312Z" fill="#50E485"/>
</svg>
